<?xml version="1.0" standalone="no"?>
<!DOCTYPE svg PUBLIC "-//W3C//DTD SVG 20010904//EN"
 "http://www.w3.org/TR/2001/REC-SVG-20010904/DTD/svg10.dtd">
<svg version="1.0" xmlns="http://www.w3.org/2000/svg"
 width="700.000000pt" height="700.000000pt" viewBox="0 0 700.000000 700.000000"
 preserveAspectRatio="xMidYMid meet">
<metadata>
Created by potrace 1.14, written by Peter Selinger 2001-2017
</metadata>
<g transform="translate(0.000000,700.000000) scale(0.100000,-0.100000)"
fill="#000000" stroke="none">
<path d="M3347 6984 c-1 -1 -44 -5 -95 -8 -51 -4 -116 -11 -145 -17 -28 -5
-68 -12 -87 -15 -69 -11 -186 -56 -238 -91 -41 -29 -58 -50 -81 -97 -30 -64
-53 -89 -111 -124 -44 -26 -171 -68 -230 -76 -25 -3 -56 -8 -70 -11 -32 -6
-146 -16 -233 -19 -113 -5 -124 -35 -91 -251 12 -77 25 -162 28 -190 3 -27 8
-66 11 -85 3 -19 7 -55 10 -80 3 -25 9 -74 15 -110 5 -35 8 -65 7 -67 -2 -1
-23 11 -47 28 -82 55 -102 61 -260 73 -36 3 -97 8 -137 12 -82 7 -85 4 -98
-81 -4 -27 -10 -63 -13 -80 -8 -48 -8 -166 1 -220 5 -27 11 -65 13 -84 8 -57
24 -76 64 -73 3 0 34 3 70 6 36 3 99 8 140 11 107 9 141 20 216 70 37 25 70
45 75 45 11 0 17 -25 24 -95 4 -33 8 -71 10 -85 3 -23 10 -78 20 -161 2 -20 7
-71 10 -114 4 -42 8 -85 10 -94 2 -10 6 -53 10 -97 4 -43 8 -95 10 -114 2 -19
7 -66 10 -105 3 -38 8 -82 9 -97 5 -46 -33 -45 -103 2 -93 64 -117 69 -376 86
-115 8 -111 11 -130 -121 -3 -23 -8 -52 -10 -65 -7 -33 -7 -158 -1 -169 3 -4
10 -41 17 -82 6 -41 15 -79 21 -86 9 -12 24 -12 203 2 164 13 212 28 286 86
27 21 52 32 77 33 l37 1 4 -90 c9 -202 1 -939 -11 -950 -4 -4 -48 -8 -65 -6
-6 1 -18 7 -25 14 -23 24 -92 63 -128 75 -39 12 -89 18 -312 37 -48 4 -77 -10
-79 -38 0 -7 -2 -21 -4 -32 -29 -159 -33 -226 -16 -307 11 -49 16 -82 20 -125
2 -22 30 -41 58 -38 15 1 57 5 93 8 36 4 101 9 145 13 86 7 151 32 216 84 25
20 43 27 58 23 19 -5 21 -11 17 -57 -3 -28 -8 -87 -12 -131 -3 -44 -7 -87 -9
-95 -2 -8 -6 -49 -10 -90 -4 -41 -9 -84 -11 -95 -6 -29 -6 -206 0 -232 11 -50
34 -79 96 -123 240 -167 388 -451 440 -845 6 -48 10 -297 10 -628 l0 -547 828
0 829 0 1 547 c0 435 4 570 16 655 55 383 199 653 437 819 82 57 99 93 101
212 1 42 -11 217 -17 249 -2 9 -6 48 -10 85 -3 37 -8 84 -11 103 -2 19 -7 65
-9 101 -5 62 -4 67 17 72 14 4 33 -3 57 -21 97 -75 116 -80 341 -98 47 -4 98
-8 113 -9 28 -3 56 16 58 38 0 7 2 19 4 27 30 151 32 220 9 355 -21 122 -24
126 -82 121 -26 -3 -87 -8 -137 -11 -172 -12 -206 -22 -298 -87 -51 -37 -106
-42 -108 -9 0 9 -3 75 -6 146 -7 148 -9 680 -3 800 l4 80 38 -1 c25 -1 50 -12
77 -33 77 -61 116 -72 311 -86 47 -3 98 -8 114 -11 60 -10 73 8 91 121 23 143
3 372 -35 406 -14 12 -31 14 -86 8 -38 -4 -107 -10 -154 -13 -116 -10 -149
-20 -224 -70 -74 -50 -112 -55 -110 -16 6 100 38 453 49 535 2 17 7 57 10 90
3 33 8 74 10 91 2 16 7 59 11 95 4 35 8 73 10 84 1 11 3 30 3 43 2 37 27 36
78 -1 97 -70 119 -75 385 -93 107 -7 111 -5 121 66 3 19 11 74 18 122 10 70
10 103 1 160 -7 40 -15 91 -18 113 -11 74 -16 78 -97 71 -40 -4 -101 -9 -137
-12 -130 -10 -153 -15 -206 -41 -30 -14 -54 -29 -54 -33 0 -4 -11 -12 -25 -18
-24 -11 -25 -10 -21 16 2 15 7 52 11 82 4 30 9 71 12 90 8 51 10 66 22 165 7
50 14 104 17 120 44 290 40 299 -126 304 -101 3 -273 26 -350 48 -135 37 -236
111 -254 184 -3 15 -22 43 -42 63 -76 76 -233 124 -499 152 -55 6 -403 12
-408 8z"/>
</g>
</svg>
